<?xml version="1.0" standalone="no"?>
<!DOCTYPE svg PUBLIC "-//W3C//DTD SVG 20010904//EN"
 "http://www.w3.org/TR/2001/REC-SVG-20010904/DTD/svg10.dtd">
<svg version="1.0" xmlns="http://www.w3.org/2000/svg"
 width="1024.000000pt" height="1024.000000pt" viewBox="0 0 1024.000000 1024.000000"
 preserveAspectRatio="xMidYMid meet">

<g transform="translate(0.000000,1024.000000) scale(0.100000,-0.100000)"
fill="#000000" stroke="none">
<path d="M4955 8299 c-540 -73 -977 -454 -1110 -970 -36 -140 -46 -385 -21
-529 35 -201 122 -395 255 -569 146 -192 938 -1122 984 -1155 33 -24 85 -26
120 -3 14 9 167 183 339 385 708 834 707 832 793 1007 119 241 151 513 95 805
-95 494 -495 895 -1010 1011 -100 23 -341 33 -445 18z m374 -154 c323 -62 598
-243 777 -511 113 -171 172 -356 181 -572 7 -153 -7 -279 -44 -397 -26 -81
-85 -209 -102 -219 -5 -3 -53 56 -108 132 -54 75 -262 364 -462 642 -200 278
-375 520 -388 538 -24 32 -62 42 -89 24 -6 -4 -125 -164 -265 -357 -139 -192
-356 -493 -482 -667 -127 -175 -233 -318 -237 -318 -11 0 -65 108 -93 185 -57
163 -78 421 -48 595 51 289 216 545 465 722 131 93 342 180 501 207 87 15 307
12 394 -4z m88 -955 c148 -206 352 -487 451 -625 100 -137 181 -253 179 -257
-1 -4 -37 -50 -81 -102 l-78 -96 -354 0 -354 0 0 54 0 55 123 103 122 104 3
157 c2 140 1 158 -15 174 -10 10 -67 60 -126 112 l-107 93 0 69 c0 72 -11 89
-59 89 -47 0 -51 -17 -51 -241 0 -115 -2 -209 -4 -209 -2 0 -35 32 -72 70 -50
52 -74 70 -94 70 -34 0 -50 -17 -50 -53 0 -23 22 -52 110 -145 l110 -116 0
-193 0 -193 -354 0 -354 0 -81 94 c-45 52 -81 97 -81 101 0 9 85 128 360 505
102 140 271 373 375 518 147 204 192 260 201 250 6 -7 133 -182 281 -388z
m-144 -456 l47 -42 -1 -108 0 -109 -64 -52 c-35 -29 -66 -53 -69 -53 -3 0 -6
99 -6 221 l0 220 23 -18 c13 -10 44 -37 70 -59z m487 -772 c0 -2 -47 -58 -104
-125 -57 -67 -199 -233 -315 -369 -116 -137 -215 -248 -219 -248 -5 0 -40 37
-78 83 -331 391 -554 657 -554 659 0 2 286 3 635 3 349 0 635 -1 635 -3z"/>
<path d="M1645 4360 c-8 -13 -275 -811 -275 -822 0 -5 36 -8 81 -8 l80 0 13
33 c8 17 22 58 32 90 l19 57 149 -2 149 -3 30 -87 29 -88 84 0 c74 0 84 2 83
18 0 9 -62 197 -137 417 l-137 400 -97 3 c-62 2 -99 -1 -103 -8z m195 -492 c0
-5 -43 -8 -95 -8 -52 0 -95 3 -95 7 0 4 21 72 47 150 l48 144 47 -143 c27 -78
48 -146 48 -150z"/>
<path d="M2325 4358 c-3 -7 -4 -195 -3 -418 l3 -405 155 -3 c220 -4 313 18
404 98 79 70 133 226 123 355 -15 181 -94 297 -244 356 -51 20 -80 23 -245 27
-151 3 -189 1 -193 -10z m381 -166 c143 -73 180 -299 69 -429 -45 -53 -100
-74 -207 -81 l-88 -5 0 273 0 273 93 -5 c66 -4 103 -11 133 -26z"/>
<path d="M3087 4363 c-2 -4 45 -134 105 -288 60 -154 130 -338 156 -410 l47
-130 92 -3 91 -3 16 43 c8 24 44 124 80 223 35 99 96 265 135 369 39 104 71
193 71 198 0 5 -41 7 -91 6 l-91 -3 -103 -313 c-97 -297 -115 -344 -115 -311
0 8 -49 151 -108 319 l-107 305 -87 3 c-47 1 -88 -1 -91 -5z"/>
<path d="M4075 4358 c-3 -7 -4 -195 -3 -418 l3 -405 260 0 260 0 0 70 0 70
-182 3 -183 2 0 95 0 94 153 3 152 3 3 73 3 72 -156 0 -155 0 0 100 0 100 178
2 177 3 0 70 0 70 -253 3 c-197 2 -254 0 -257 -10z"/>
<path d="M4835 4357 c-3 -6 -4 -194 -3 -417 l3 -405 75 0 75 0 5 270 5 270
170 -273 170 -273 80 3 80 3 0 415 0 415 -77 3 -78 3 -2 -273 -3 -273 -154
255 c-85 140 -161 263 -169 273 -12 13 -31 17 -94 17 -54 0 -80 -4 -83 -13z"/>
<path d="M5694 4357 c-3 -8 -4 -41 -2 -73 l3 -59 112 -3 113 -3 2 -342 3 -342
75 0 75 0 3 342 2 342 113 3 112 3 0 70 0 70 -303 3 c-249 2 -303 0 -308 -11z"/>
<path d="M6504 4356 c-3 -8 -4 -149 -2 -313 3 -282 4 -301 25 -345 49 -108
119 -159 241 -178 165 -27 313 44 376 179 20 44 21 62 21 356 l0 310 -77 3
-76 3 -4 -288 c-3 -286 -3 -288 -28 -332 -61 -107 -208 -111 -284 -8 -20 27
-21 44 -26 325 l-5 297 -78 3 c-61 2 -79 0 -83 -12z"/>
<path d="M7415 4358 c-3 -7 -4 -195 -3 -418 l3 -405 80 0 80 0 3 153 3 152 57
0 57 0 80 -153 80 -152 83 -3 c60 -2 84 1 87 10 3 7 -32 82 -77 167 -76 143
-80 155 -63 165 78 46 124 118 132 205 10 114 -40 205 -142 256 -60 30 -61 30
-258 33 -157 3 -198 1 -202 -10z m412 -171 c24 -23 28 -36 28 -82 0 -46 -4
-59 -28 -82 -26 -27 -33 -28 -137 -31 l-110 -4 0 119 0 118 110 -5 c103 -5
111 -7 137 -33z"/>
<path d="M8245 4358 c-3 -7 -4 -195 -3 -418 l3 -405 260 0 260 0 3 73 3 72
-181 0 -180 0 0 95 0 95 143 0 c98 0 147 4 155 12 7 7 12 38 12 70 0 74 -4 76
-177 74 l-133 -2 0 98 0 98 180 0 181 0 -3 73 -3 72 -258 3 c-201 2 -259 0
-262 -10z"/>
<path d="M1964 3034 c-52 -19 -111 -76 -137 -134 -43 -95 -20 -239 51 -313
102 -107 296 -90 374 33 l29 45 -50 3 c-43 3 -55 -1 -78 -22 -46 -42 -129 -47
-182 -10 -33 24 -61 91 -61 149 0 100 61 165 156 165 41 0 59 -5 82 -25 22
-19 41 -25 76 -25 51 0 52 0 32 38 -50 95 -176 137 -292 96z"/>
<path d="M2580 3047 c0 -1 -40 -117 -90 -257 -49 -140 -86 -258 -81 -263 4 -4
28 -7 51 -5 43 3 44 3 63 61 l19 57 92 0 91 0 20 -57 c20 -58 20 -58 64 -61
24 -2 47 0 52 5 7 7 -154 480 -174 511 -7 10 -107 19 -107 9z m120 -322 c0 0
-29 0 -65 0 -40 0 -64 3 -62 10 2 5 17 47 33 92 l28 82 33 -92 c18 -51 32 -92
33 -92z"/>
<path d="M3027 3044 c-10 -10 -8 -496 2 -512 5 -8 23 -12 47 -10 l39 3 5 162
5 163 59 -105 c57 -100 62 -105 92 -105 38 0 44 7 115 130 l49 85 0 -161 c0
-176 -2 -171 60 -169 l35 2 0 259 0 259 -38 3 c-21 2 -45 -2 -52 -8 -8 -7 -47
-70 -86 -141 -40 -71 -75 -129 -79 -129 -3 0 -42 62 -86 138 l-80 137 -40 3
c-22 2 -43 0 -47 -4z"/>
<path d="M3742 2788 l3 -263 45 0 45 0 3 93 3 92 62 0 c86 0 136 16 174 56 60
64 55 174 -12 233 -47 41 -90 51 -218 51 l-107 0 2 -262z m255 149 c23 -23 23
-91 0 -114 -12 -12 -38 -19 -87 -21 l-70 -4 0 65 c0 36 -3 73 -7 82 -5 16 2
17 70 13 56 -2 81 -8 94 -21z"/>
<path d="M4562 2788 l3 -263 45 0 45 0 3 93 3 92 72 0 c136 1 202 55 202 167
0 47 -5 68 -21 89 -50 67 -98 83 -252 84 l-102 0 2 -262z m232 158 c39 -16 53
-56 37 -99 -14 -36 -40 -47 -110 -47 l-61 0 0 80 0 80 50 0 c28 0 66 -6 84
-14z"/>
<path d="M5085 3037 c-3 -7 -4 -125 -3 -262 l3 -250 30 1 c17 0 94 1 173 2
l143 2 -3 43 -3 42 -120 3 -120 3 2 197 c2 108 0 205 -3 215 -4 13 -16 17 -50
17 -27 0 -47 -5 -49 -13z"/>
<path d="M5735 3038 c-124 -337 -181 -510 -170 -514 7 -3 30 -4 51 -2 38 3 40
5 59 61 l20 58 94 -3 94 -3 16 -45 c9 -25 20 -51 24 -58 11 -16 97 -16 97 1 0
6 -39 125 -88 262 l-87 250 -53 3 c-36 2 -54 -1 -57 -10z m84 -206 c13 -42 26
-84 28 -93 4 -14 -5 -16 -57 -15 -49 1 -60 4 -57 16 21 74 53 170 57 170 3 0
16 -35 29 -78z"/>
<path d="M6185 3037 c-3 -7 -4 -125 -3 -262 l3 -250 45 0 45 0 5 172 5 173
105 -166 c57 -91 110 -170 116 -175 7 -6 32 -9 56 -7 l43 3 0 260 0 260 -47 3
-48 3 -2 -176 -3 -177 -99 159 c-55 87 -106 166 -114 176 -18 20 -100 24 -107
4z"/>
<path d="M6812 2789 l3 -262 25 -4 c14 -2 35 -1 48 2 l23 6 -3 169 c-2 94 -1
170 2 170 3 -1 52 -77 110 -171 108 -174 118 -184 176 -177 l29 3 3 263 2 263
-47 -3 -48 -3 0 -172 c0 -94 -2 -169 -5 -166 -3 2 -52 80 -110 171 l-105 167
-53 3 -52 3 2 -262z"/>
<path d="M7435 2956 c-4 -52 -5 -159 -2 -238 4 -79 6 -155 7 -171 l0 -28 158
3 157 3 0 45 0 45 -105 2 c-58 1 -106 4 -107 7 -2 3 -3 31 -3 61 l0 55 95 0
95 0 0 45 0 45 -97 0 -98 0 1 62 2 63 108 1 109 2 3 46 3 46 -160 0 -159 0 -7
-94z"/>
<path d="M7957 3044 c-13 -13 -8 -502 6 -511 15 -10 55 -13 80 -6 16 4 18 15
15 99 l-3 94 36 0 c36 0 38 -2 90 -97 l54 -98 44 -3 c24 -2 48 1 53 6 6 6 -11
47 -43 106 -49 93 -51 98 -33 111 11 8 22 15 26 15 3 0 16 15 27 34 30 47 29
132 -1 176 -40 58 -87 75 -223 78 -66 2 -123 0 -128 -4z m252 -108 c27 -25 28
-79 1 -106 -16 -16 -33 -20 -85 -20 l-65 0 0 76 0 76 64 -4 c45 -3 71 -10 85
-22z"/>
</g>
</svg>
